<?xml version="1.0" encoding="UTF-8"?>
<svg version="1.1" xmlns="http://www.w3.org/2000/svg" width="500" height="500">
<path d="M0 0 C165 0 330 0 500 0 C500 165 500 330 500 500 C335 500 170 500 0 500 C0 335 0 170 0 0 Z " fill="#FEFEFE" transform="translate(0,0)"/>
<path d="M0 0 C5.34399075 3.16380477 9.80104937 7.07111687 11.80859375 13.09375 C12.14058421 17.90761163 11.9926462 20.88158875 9.9609375 25.24609375 C8.94195936 28.18162059 8.64537206 29.57899735 9.59326172 32.56835938 C10.97698279 35.16188289 12.48665495 37.58821428 14.12109375 40.03125 C15.18245615 41.70527908 16.24119139 43.38097769 17.296875 45.05859375 C17.77680908 45.7868335 18.25674316 46.51507324 18.7512207 47.26538086 C19.80859375 49.09375 19.80859375 49.09375 19.80859375 51.09375 C20.36546875 51.03574219 20.92234375 50.97773438 21.49609375 50.91796875 C27.88973372 50.53996639 31.99019165 51.81918561 36.80859375 56.09375 C40.31509372 59.89657391 41.07297638 63.55274994 41.24609375 68.65625 C40.97914208 74.9511425 39.53670412 78.44077487 34.93359375 82.84375 C30.9797955 85.69048474 28.43478238 87.11115273 23.5234375 87.05859375 C18.63359625 88.42116781 17.67922423 90.46669064 15.234375 94.74023438 C14.76386719 95.62001953 14.29335937 96.49980469 13.80859375 97.40625 C13.05642578 98.70852539 13.05642578 98.70852539 12.2890625 100.03710938 C9.57562774 104.36833779 9.57562774 104.36833779 9.11328125 109.23120117 C9.64138448 110.64584287 10.24066791 112.03414671 10.87109375 113.40625 C12.5462365 118.20832589 12.20419097 121.94651807 10.55859375 126.71875 C7.60958789 132.40611844 4.96460814 135.88687692 -1.19140625 138.09375 C-7.21472544 138.90952421 -12.8784919 138.12970106 -18.19140625 135.09375 C-22.57238234 130.59748506 -24.49103032 126.60493928 -24.62890625 120.34375 C-24.51247383 114.37658859 -23.32385534 110.44589892 -19.19140625 106.09375 C-14.75788449 102.22129427 -10.6834157 101.68343904 -4.9140625 101.953125 C-4.34558594 101.99953125 -3.77710938 102.0459375 -3.19140625 102.09375 C-2.959375 101.43375 -2.72734375 100.77375 -2.48828125 100.09375 C-1.4332344 97.65315969 -0.32199864 95.54651503 1.04296875 93.28125 C1.45160156 92.59804687 1.86023438 91.91484375 2.28125 91.2109375 C3.1370101 89.79252168 4.00436562 88.381041 4.8828125 86.9765625 C7.43958296 82.8970971 7.43958296 82.8970971 7.13671875 78.28125 C6.6984375 77.559375 6.26015625 76.8375 5.80859375 76.09375 C4.46070481 72.05008317 4.35853395 68.32576397 4.80859375 64.09375 C5.80859375 62.09375 6.80859375 60.09375 7.80859375 58.09375 C6.21929774 52.60074566 2.76558772 47.63106476 -0.08984375 42.71289062 C-3.19140625 37.30026126 -3.19140625 37.30026126 -3.19140625 35.09375 C-3.84367187 35.14015625 -4.4959375 35.1865625 -5.16796875 35.234375 C-11.10129457 35.4794091 -14.55002363 35.18258707 -19.19140625 31.09375 C-23.3471013 26.70718301 -24.85829214 22.66348744 -25.62890625 16.71875 C-24.88916745 10.58948564 -21.68221988 6.16046832 -17.06640625 2.15625 C-11.97759469 -1.49441916 -5.88379012 -2.43322515 0 0 Z " fill="#2770B6" transform="translate(227.19140625,115.90625)"/>
<path d="M0 0 C3.66864538 2.68437467 6.50666083 5.76332166 8.5625 9.875 C9.58296381 21.83617419 9.58296381 21.83617419 7.125 26.875 C3.37100767 31.26991785 -0.94339317 34.42452011 -6.80078125 35.1796875 C-9 35.1875 -9 35.1875 -12.4375 34.875 C-12.66824219 35.53757813 -12.89898437 36.20015625 -13.13671875 36.8828125 C-14.19858775 39.32543008 -15.3060789 41.37272981 -16.70703125 43.6171875 C-17.12017578 44.29136719 -17.53332031 44.96554688 -17.95898438 45.66015625 C-18.82163186 47.05657502 -19.7020623 48.44215907 -20.59960938 49.81640625 C-21.81689073 51.84199329 -22.78684146 53.6010635 -23.4375 55.875 C-22.34582429 59.5995097 -22.34582429 59.5995097 -20.4375 62.875 C-19.50325529 68.03670204 -19.86031278 72.5729418 -22.4375 77.1875 C-26.0130428 82.11136202 -30.05216728 85.27294374 -36.1171875 86.3515625 C-41.79979709 86.65064722 -46.15050335 85.87781273 -50.77734375 82.4765625 C-55.31961443 78.09460726 -56.66707263 73.46982958 -56.9375 67.25 C-56.70226642 61.57302956 -55.08772533 58.35620585 -50.90625 54.44140625 C-45.62218841 49.86965688 -45.62218841 49.86965688 -42.48876953 49.88378906 C-39.90201006 49.89149922 -37.90179945 49.68572031 -35.4375 48.875 C-32.71385248 46.15582971 -31.07390332 43.02270697 -29.3125 39.625 C-28.57386719 38.33529297 -28.57386719 38.33529297 -27.8203125 37.01953125 C-25.09645933 32.39736717 -25.09645933 32.39736717 -24.75048828 27.21191406 C-25.3610584 24.88056107 -25.3610584 24.88056107 -26.4375 22.875 C-26.93078755 17.02024289 -27.29494288 11.68515719 -24.75 6.3125 C-17.53077259 -1.29695592 -10.22496096 -3.34635086 0 0 Z " fill="#4E4E4E" transform="translate(318.4375,168.125)"/>
<path d="M0 0 C12 0 12 0 14.59765625 2.01171875 C15.08105469 2.89472656 15.56445312 3.77773438 16.0625 4.6875 C16.56910156 5.55761719 17.07570312 6.42773438 17.59765625 7.32421875 C18.06042969 8.20722656 18.52320313 9.09023438 19 10 C19.55558594 10.89332031 20.11117187 11.78664063 20.68359375 12.70703125 C22 15 22 15 22 17 C26.51819811 13.00579423 28.56779897 8.08222398 31.12109375 2.703125 C34 0 34 0 47 0 C47 17.82 47 35.64 47 54 C42.71 54 38.42 54 34 54 C33.67 44.1 33.34 34.2 33 24 C31.02 26.97 29.04 29.94 27 33 C23 34.1875 23 34.1875 19 33 C17.02 29.7 15.04 26.4 13 23 C12.67 33.23 12.34 43.46 12 54 C8.04 54 4.08 54 0 54 C0 36.18 0 18.36 0 0 Z " fill="#2570B5" transform="translate(203,283)"/>
<path d="M0 0 C4.62 -0.103125 9.24 -0.20625 14 -0.3125 C15.44117188 -0.35802002 16.88234375 -0.40354004 18.3671875 -0.45043945 C25.78776793 -0.53049165 31.4886874 -0.35652127 37 5 C39.93637158 8.62113808 40.41029342 11.38832633 40.375 16 C40.38660156 17.5159375 40.38660156 17.5159375 40.3984375 19.0625 C39.76249494 23.75101769 37.84978936 26.2687859 34.3125 29.3125 C33.549375 29.869375 32.78625 30.42625 32 31 C33.97129246 37.57097487 36.60434427 43.42141499 39.79296875 49.49609375 C41 52 41 52 41 54 C36.71 54 32.42 54 28 54 C26.705826 51.43873936 25.41459216 48.87606642 24.125 46.3125 C23.76019531 45.59126953 23.39539063 44.87003906 23.01953125 44.12695312 C21.1820758 40.46874636 19.43861498 36.8388305 18 33 C16.35 33 14.7 33 13 33 C12.67 39.93 12.34 46.86 12 54 C8.04 54 4.08 54 0 54 C0 36.18 0 18.36 0 0 Z " fill="#2670B5" transform="translate(258,283)"/>
<path d="M0 0 C5.17739822 2.52186523 7.99795085 6.06408038 10.25 11.3125 C11.00443958 17.25003744 10.66113561 22.25460927 7.25 27.3125 C3.42225498 31.74462582 0.23256157 33.88465669 -5.58203125 34.71875 C-12.0379326 34.92181898 -16.2779117 34.46283362 -21.19140625 30.0703125 C-25.64384318 25.04876709 -26.42289339 19.52801777 -26.2265625 13.03125 C-25.28644868 7.66797771 -22.17796594 4.31033678 -18.07421875 0.93359375 C-12.00955629 -3.0676893 -6.3848946 -2.56442488 0 0 Z " fill="#4F4F4F" transform="translate(287.75,116.6875)"/>
<path d="M0 0 C4.6209371 2.66082649 6.89459424 6.37128273 8.5625 11.375 C9.33693365 17.81168628 8.50022012 23.12089089 4.5625 28.375 C-0.46022926 32.97536339 -5.22058781 34.80738648 -12.0234375 34.71875 C-17.69672972 33.91090256 -21.44589093 30.64629368 -24.875 26.25 C-27.74005909 20.97829127 -28.19796028 16.27512287 -27.4375 10.375 C-25.52839968 5.34970006 -22.3903882 1.37706309 -17.51953125 -1 C-11.66113062 -2.75861933 -5.58839528 -2.48141432 0 0 Z " fill="#4F4F4F" transform="translate(200.4375,168.625)"/>
<path d="M0 0 C1.91595968 -0.08133791 3.83291932 -0.13934367 5.75 -0.1875 C7.35101563 -0.23970703 7.35101563 -0.23970703 8.984375 -0.29296875 C12.33116624 0.03217289 13.64237458 0.64797464 16 3 C16.5625 5.4375 16.5625 5.4375 16 8 C13.74517635 10.78094916 12.05707096 11.88218404 8.4765625 12.28125 C5.95178657 12.31018726 3.50923199 12.28345028 1 12 C0 11 0 11 -0.09765625 8.49609375 C-0.08605469 7.48675781 -0.07445312 6.47742188 -0.0625 5.4375 C-0.05347656 4.42558594 -0.04445313 3.41367187 -0.03515625 2.37109375 C-0.02355469 1.58863281 -0.01195312 0.80617188 0 0 Z " fill="#F0F5FA" transform="translate(270,294)"/>
</svg>
